<mxfile host="app.diagrams.net" modified="2020-12-28T16:42:56.822Z" agent="5.0 (Windows NT 10.0; Win64; x64) AppleWebKit/537.36 (KHTML, like Gecko) Chrome/87.0.4280.88 Safari/537.36" etag="22iWkeSCFTkRAWFL03rQ" version="14.1.2" type="github" pages="3">
  <diagram name="Page-1" id="e7e014a7-5840-1c2e-5031-d8a46d1fe8dd">
    <mxGraphModel dx="782" dy="413" grid="1" gridSize="10" guides="1" tooltips="1" connect="1" arrows="1" fold="1" page="1" pageScale="1" pageWidth="1169" pageHeight="826" background="#ffffff" math="0" shadow="0">
      <root>
        <mxCell id="0" />
        <mxCell id="1" parent="0" />
        <mxCell id="YEbF5BMtfVLjAP6Cb6WP-41" value="使用者&lt;br&gt;" style="shape=umlActor;verticalLabelPosition=bottom;verticalAlign=top;html=1;outlineConnect=0;" vertex="1" parent="1">
          <mxGeometry x="110" y="520" width="30" height="60" as="geometry" />
        </mxCell>
        <mxCell id="YEbF5BMtfVLjAP6Cb6WP-42" value="管理员&lt;br&gt;" style="shape=umlActor;verticalLabelPosition=bottom;verticalAlign=top;html=1;outlineConnect=0;" vertex="1" parent="1">
          <mxGeometry x="630" y="520" width="30" height="60" as="geometry" />
        </mxCell>
        <mxCell id="YEbF5BMtfVLjAP6Cb6WP-45" value="创建问卷" style="ellipse;whiteSpace=wrap;html=1;" vertex="1" parent="1">
          <mxGeometry x="320" y="350" width="90" height="47" as="geometry" />
        </mxCell>
        <mxCell id="YEbF5BMtfVLjAP6Cb6WP-47" value="用户管理" style="ellipse;whiteSpace=wrap;html=1;" vertex="1" parent="1">
          <mxGeometry x="670" y="690" width="110" height="57" as="geometry" />
        </mxCell>
        <mxCell id="YEbF5BMtfVLjAP6Cb6WP-48" value="数据分析" style="ellipse;whiteSpace=wrap;html=1;" vertex="1" parent="1">
          <mxGeometry x="320" y="560" width="90" height="50" as="geometry" />
        </mxCell>
        <mxCell id="YEbF5BMtfVLjAP6Cb6WP-49" value="数据分析报告导出pdf" style="ellipse;whiteSpace=wrap;html=1;" vertex="1" parent="1">
          <mxGeometry x="320" y="620" width="90" height="40" as="geometry" />
        </mxCell>
        <mxCell id="YEbF5BMtfVLjAP6Cb6WP-50" value="问卷、问卷数据导出excel" style="ellipse;whiteSpace=wrap;html=1;" vertex="1" parent="1">
          <mxGeometry x="320" y="670" width="90" height="56" as="geometry" />
        </mxCell>
        <mxCell id="YEbF5BMtfVLjAP6Cb6WP-51" value="问卷管理" style="ellipse;whiteSpace=wrap;html=1;" vertex="1" parent="1">
          <mxGeometry x="660" y="310" width="110" height="57" as="geometry" />
        </mxCell>
        <mxCell id="YEbF5BMtfVLjAP6Cb6WP-52" value="发布问卷" style="ellipse;whiteSpace=wrap;html=1;" vertex="1" parent="1">
          <mxGeometry x="320" y="450" width="90" height="46.5" as="geometry" />
        </mxCell>
        <mxCell id="YEbF5BMtfVLjAP6Cb6WP-54" value="问卷导出word" style="ellipse;whiteSpace=wrap;html=1;" vertex="1" parent="1">
          <mxGeometry x="320" y="730" width="90" height="40" as="geometry" />
        </mxCell>
        <mxCell id="YEbF5BMtfVLjAP6Cb6WP-55" value="做达问卷" style="ellipse;whiteSpace=wrap;html=1;" vertex="1" parent="1">
          <mxGeometry x="320" y="500" width="90" height="50" as="geometry" />
        </mxCell>
        <mxCell id="YEbF5BMtfVLjAP6Cb6WP-56" value="登录系统" style="ellipse;whiteSpace=wrap;html=1;" vertex="1" parent="1">
          <mxGeometry x="320" y="300" width="90" height="44" as="geometry" />
        </mxCell>
        <mxCell id="YEbF5BMtfVLjAP6Cb6WP-58" value="编辑问卷" style="ellipse;whiteSpace=wrap;html=1;" vertex="1" parent="1">
          <mxGeometry x="320" y="400" width="90" height="47" as="geometry" />
        </mxCell>
        <mxCell id="YEbF5BMtfVLjAP6Cb6WP-61" value="" style="endArrow=classic;html=1;" edge="1" parent="1">
          <mxGeometry width="50" height="50" relative="1" as="geometry">
            <mxPoint x="150" y="530" as="sourcePoint" />
            <mxPoint x="310" y="340" as="targetPoint" />
          </mxGeometry>
        </mxCell>
        <mxCell id="YEbF5BMtfVLjAP6Cb6WP-62" value="" style="endArrow=classic;html=1;" edge="1" parent="1">
          <mxGeometry width="50" height="50" relative="1" as="geometry">
            <mxPoint x="160" y="587" as="sourcePoint" />
            <mxPoint x="310" y="580" as="targetPoint" />
          </mxGeometry>
        </mxCell>
        <mxCell id="YEbF5BMtfVLjAP6Cb6WP-63" value="" style="endArrow=classic;html=1;" edge="1" parent="1">
          <mxGeometry width="50" height="50" relative="1" as="geometry">
            <mxPoint x="160" y="530" as="sourcePoint" />
            <mxPoint x="310" y="380" as="targetPoint" />
          </mxGeometry>
        </mxCell>
        <mxCell id="YEbF5BMtfVLjAP6Cb6WP-64" value="" style="endArrow=classic;html=1;" edge="1" parent="1">
          <mxGeometry width="50" height="50" relative="1" as="geometry">
            <mxPoint x="160" y="540" as="sourcePoint" />
            <mxPoint x="310" y="430" as="targetPoint" />
          </mxGeometry>
        </mxCell>
        <mxCell id="YEbF5BMtfVLjAP6Cb6WP-65" value="" style="endArrow=classic;html=1;" edge="1" parent="1">
          <mxGeometry width="50" height="50" relative="1" as="geometry">
            <mxPoint x="160" y="560" as="sourcePoint" />
            <mxPoint x="310" y="470" as="targetPoint" />
          </mxGeometry>
        </mxCell>
        <mxCell id="YEbF5BMtfVLjAP6Cb6WP-66" value="" style="endArrow=classic;html=1;" edge="1" parent="1">
          <mxGeometry width="50" height="50" relative="1" as="geometry">
            <mxPoint x="160" y="603" as="sourcePoint" />
            <mxPoint x="310" y="640" as="targetPoint" />
          </mxGeometry>
        </mxCell>
        <mxCell id="YEbF5BMtfVLjAP6Cb6WP-67" value="" style="endArrow=classic;html=1;" edge="1" parent="1">
          <mxGeometry width="50" height="50" relative="1" as="geometry">
            <mxPoint x="160" y="570" as="sourcePoint" />
            <mxPoint x="310" y="530" as="targetPoint" />
          </mxGeometry>
        </mxCell>
        <mxCell id="YEbF5BMtfVLjAP6Cb6WP-68" value="" style="endArrow=classic;html=1;" edge="1" parent="1">
          <mxGeometry width="50" height="50" relative="1" as="geometry">
            <mxPoint x="150" y="620" as="sourcePoint" />
            <mxPoint x="310" y="690" as="targetPoint" />
          </mxGeometry>
        </mxCell>
        <mxCell id="YEbF5BMtfVLjAP6Cb6WP-69" value="" style="endArrow=classic;html=1;" edge="1" parent="1">
          <mxGeometry width="50" height="50" relative="1" as="geometry">
            <mxPoint x="140" y="620" as="sourcePoint" />
            <mxPoint x="310" y="750" as="targetPoint" />
          </mxGeometry>
        </mxCell>
        <mxCell id="YEbF5BMtfVLjAP6Cb6WP-70" value="" style="endArrow=classic;html=1;" edge="1" parent="1">
          <mxGeometry width="50" height="50" relative="1" as="geometry">
            <mxPoint x="610" y="500" as="sourcePoint" />
            <mxPoint x="420" y="320" as="targetPoint" />
          </mxGeometry>
        </mxCell>
        <mxCell id="YEbF5BMtfVLjAP6Cb6WP-71" value="" style="endArrow=classic;html=1;" edge="1" parent="1">
          <mxGeometry width="50" height="50" relative="1" as="geometry">
            <mxPoint x="610" y="520" as="sourcePoint" />
            <mxPoint x="420" y="380" as="targetPoint" />
          </mxGeometry>
        </mxCell>
        <mxCell id="YEbF5BMtfVLjAP6Cb6WP-72" value="" style="endArrow=classic;html=1;" edge="1" parent="1">
          <mxGeometry width="50" height="50" relative="1" as="geometry">
            <mxPoint x="610" y="540" as="sourcePoint" />
            <mxPoint x="420" y="420" as="targetPoint" />
          </mxGeometry>
        </mxCell>
        <mxCell id="YEbF5BMtfVLjAP6Cb6WP-73" value="" style="endArrow=classic;html=1;" edge="1" parent="1">
          <mxGeometry width="50" height="50" relative="1" as="geometry">
            <mxPoint x="610" y="550" as="sourcePoint" />
            <mxPoint x="430" y="490" as="targetPoint" />
          </mxGeometry>
        </mxCell>
        <mxCell id="YEbF5BMtfVLjAP6Cb6WP-74" value="" style="endArrow=classic;html=1;" edge="1" parent="1">
          <mxGeometry width="50" height="50" relative="1" as="geometry">
            <mxPoint x="620" y="560" as="sourcePoint" />
            <mxPoint x="420" y="540" as="targetPoint" />
          </mxGeometry>
        </mxCell>
        <mxCell id="YEbF5BMtfVLjAP6Cb6WP-75" value="" style="endArrow=classic;html=1;" edge="1" parent="1">
          <mxGeometry width="50" height="50" relative="1" as="geometry">
            <mxPoint x="600" y="570" as="sourcePoint" />
            <mxPoint x="420" y="590" as="targetPoint" />
          </mxGeometry>
        </mxCell>
        <mxCell id="YEbF5BMtfVLjAP6Cb6WP-76" value="" style="endArrow=classic;html=1;" edge="1" parent="1">
          <mxGeometry width="50" height="50" relative="1" as="geometry">
            <mxPoint x="610" y="580" as="sourcePoint" />
            <mxPoint x="420" y="630" as="targetPoint" />
          </mxGeometry>
        </mxCell>
        <mxCell id="YEbF5BMtfVLjAP6Cb6WP-77" value="" style="endArrow=classic;html=1;" edge="1" parent="1">
          <mxGeometry width="50" height="50" relative="1" as="geometry">
            <mxPoint x="620" y="590" as="sourcePoint" />
            <mxPoint x="420" y="690" as="targetPoint" />
          </mxGeometry>
        </mxCell>
        <mxCell id="YEbF5BMtfVLjAP6Cb6WP-78" value="" style="endArrow=classic;html=1;" edge="1" parent="1">
          <mxGeometry width="50" height="50" relative="1" as="geometry">
            <mxPoint x="610" y="620" as="sourcePoint" />
            <mxPoint x="430" y="750" as="targetPoint" />
          </mxGeometry>
        </mxCell>
        <mxCell id="YEbF5BMtfVLjAP6Cb6WP-79" value="" style="endArrow=classic;html=1;" edge="1" parent="1">
          <mxGeometry width="50" height="50" relative="1" as="geometry">
            <mxPoint x="660" y="630" as="sourcePoint" />
            <mxPoint x="710" y="680" as="targetPoint" />
          </mxGeometry>
        </mxCell>
        <mxCell id="YEbF5BMtfVLjAP6Cb6WP-80" value="" style="endArrow=classic;html=1;" edge="1" parent="1">
          <mxGeometry width="50" height="50" relative="1" as="geometry">
            <mxPoint x="650" y="513" as="sourcePoint" />
            <mxPoint x="700" y="380" as="targetPoint" />
          </mxGeometry>
        </mxCell>
      </root>
    </mxGraphModel>
  </diagram>
  <diagram id="f_4AQxmGlGGp5-3niudz" name="Page-2">
    <mxGraphModel dx="1117" dy="670" grid="1" gridSize="10" guides="1" tooltips="1" connect="1" arrows="1" fold="1" page="1" pageScale="1" pageWidth="827" pageHeight="1169" math="0" shadow="0">
      <root>
        <mxCell id="GkzDaTwyPBY7PTJ84x12-0" />
        <mxCell id="GkzDaTwyPBY7PTJ84x12-1" parent="GkzDaTwyPBY7PTJ84x12-0" />
        <mxCell id="GkzDaTwyPBY7PTJ84x12-3" value="开始" style="ellipse;whiteSpace=wrap;html=1;" vertex="1" parent="GkzDaTwyPBY7PTJ84x12-1">
          <mxGeometry x="268.75" y="20" width="150" height="60" as="geometry" />
        </mxCell>
        <mxCell id="GkzDaTwyPBY7PTJ84x12-5" value="" style="endArrow=classic;html=1;" edge="1" parent="GkzDaTwyPBY7PTJ84x12-1">
          <mxGeometry width="50" height="50" relative="1" as="geometry">
            <mxPoint x="343.25" y="80" as="sourcePoint" />
            <mxPoint x="343.25" y="150" as="targetPoint" />
          </mxGeometry>
        </mxCell>
        <mxCell id="GkzDaTwyPBY7PTJ84x12-6" value="进入系统登录页面" style="rounded=0;whiteSpace=wrap;html=1;" vertex="1" parent="GkzDaTwyPBY7PTJ84x12-1">
          <mxGeometry x="283.75" y="150" width="125" height="40" as="geometry" />
        </mxCell>
        <mxCell id="GkzDaTwyPBY7PTJ84x12-7" value="" style="endArrow=classic;html=1;" edge="1" parent="GkzDaTwyPBY7PTJ84x12-1">
          <mxGeometry width="50" height="50" relative="1" as="geometry">
            <mxPoint x="345.75" y="190" as="sourcePoint" />
            <mxPoint x="345.75" y="260" as="targetPoint" />
          </mxGeometry>
        </mxCell>
        <mxCell id="GkzDaTwyPBY7PTJ84x12-8" value="选择登录方式" style="rhombus;whiteSpace=wrap;html=1;" vertex="1" parent="GkzDaTwyPBY7PTJ84x12-1">
          <mxGeometry x="300" y="260" width="92.5" height="60" as="geometry" />
        </mxCell>
        <mxCell id="GkzDaTwyPBY7PTJ84x12-9" value="" style="endArrow=classic;html=1;exitX=1;exitY=0.5;exitDx=0;exitDy=0;" edge="1" parent="GkzDaTwyPBY7PTJ84x12-1" source="GkzDaTwyPBY7PTJ84x12-8">
          <mxGeometry width="50" height="50" relative="1" as="geometry">
            <mxPoint x="478.75" y="260" as="sourcePoint" />
            <mxPoint x="450" y="360" as="targetPoint" />
            <Array as="points">
              <mxPoint x="450" y="290" />
            </Array>
          </mxGeometry>
        </mxCell>
        <mxCell id="GkzDaTwyPBY7PTJ84x12-10" value="" style="endArrow=classic;html=1;" edge="1" parent="GkzDaTwyPBY7PTJ84x12-1">
          <mxGeometry width="50" height="50" relative="1" as="geometry">
            <mxPoint x="300" y="290" as="sourcePoint" />
            <mxPoint x="200" y="350" as="targetPoint" />
            <Array as="points">
              <mxPoint x="200" y="290" />
            </Array>
          </mxGeometry>
        </mxCell>
        <mxCell id="GkzDaTwyPBY7PTJ84x12-15" value="验证码验证" style="rhombus;whiteSpace=wrap;html=1;" vertex="1" parent="GkzDaTwyPBY7PTJ84x12-1">
          <mxGeometry x="160" y="350" width="80" height="80" as="geometry" />
        </mxCell>
        <mxCell id="GkzDaTwyPBY7PTJ84x12-17" value="进入系统" style="rounded=0;whiteSpace=wrap;html=1;" vertex="1" parent="GkzDaTwyPBY7PTJ84x12-1">
          <mxGeometry x="280" y="470" width="120" height="60" as="geometry" />
        </mxCell>
        <mxCell id="GkzDaTwyPBY7PTJ84x12-18" value="用户名登录" style="text;html=1;align=center;verticalAlign=middle;resizable=0;points=[];autosize=1;" vertex="1" parent="GkzDaTwyPBY7PTJ84x12-1">
          <mxGeometry x="208.75" y="270" width="80" height="20" as="geometry" />
        </mxCell>
        <mxCell id="GkzDaTwyPBY7PTJ84x12-19" value="邮箱登录" style="text;html=1;align=center;verticalAlign=middle;resizable=0;points=[];autosize=1;" vertex="1" parent="GkzDaTwyPBY7PTJ84x12-1">
          <mxGeometry x="403.75" y="270" width="60" height="20" as="geometry" />
        </mxCell>
        <mxCell id="GkzDaTwyPBY7PTJ84x12-20" value="正确" style="text;html=1;align=center;verticalAlign=middle;resizable=0;points=[];autosize=1;" vertex="1" parent="GkzDaTwyPBY7PTJ84x12-1">
          <mxGeometry x="352.5" y="380" width="40" height="20" as="geometry" />
        </mxCell>
        <mxCell id="GkzDaTwyPBY7PTJ84x12-21" value="" style="endArrow=classic;html=1;" edge="1" parent="GkzDaTwyPBY7PTJ84x12-1">
          <mxGeometry width="50" height="50" relative="1" as="geometry">
            <mxPoint x="490" y="400" as="sourcePoint" />
            <mxPoint x="348.75" y="240" as="targetPoint" />
            <Array as="points">
              <mxPoint x="519" y="400" />
              <mxPoint x="518.75" y="240" />
            </Array>
          </mxGeometry>
        </mxCell>
        <mxCell id="GkzDaTwyPBY7PTJ84x12-24" value="" style="endArrow=classic;html=1;" edge="1" parent="GkzDaTwyPBY7PTJ84x12-1">
          <mxGeometry width="50" height="50" relative="1" as="geometry">
            <mxPoint x="348.75" y="210" as="sourcePoint" />
            <mxPoint x="628.75" y="320" as="targetPoint" />
            <Array as="points">
              <mxPoint x="628.75" y="210" />
            </Array>
          </mxGeometry>
        </mxCell>
        <mxCell id="GkzDaTwyPBY7PTJ84x12-25" value="忘记密码" style="rounded=0;whiteSpace=wrap;html=1;" vertex="1" parent="GkzDaTwyPBY7PTJ84x12-1">
          <mxGeometry x="578.75" y="320" width="110" height="40" as="geometry" />
        </mxCell>
        <mxCell id="GkzDaTwyPBY7PTJ84x12-26" value="" style="endArrow=classic;html=1;entryX=0;entryY=0.25;entryDx=0;entryDy=0;" edge="1" parent="GkzDaTwyPBY7PTJ84x12-1" target="GkzDaTwyPBY7PTJ84x12-25">
          <mxGeometry width="50" height="50" relative="1" as="geometry">
            <mxPoint x="518.75" y="330" as="sourcePoint" />
            <mxPoint x="578.75" y="310" as="targetPoint" />
          </mxGeometry>
        </mxCell>
        <mxCell id="GkzDaTwyPBY7PTJ84x12-28" value="" style="endArrow=classic;html=1;" edge="1" parent="GkzDaTwyPBY7PTJ84x12-1">
          <mxGeometry width="50" height="50" relative="1" as="geometry">
            <mxPoint x="633.1600000000001" y="360" as="sourcePoint" />
            <mxPoint x="632.75" y="410" as="targetPoint" />
          </mxGeometry>
        </mxCell>
        <mxCell id="GkzDaTwyPBY7PTJ84x12-29" value="邮箱验证" style="rhombus;whiteSpace=wrap;html=1;" vertex="1" parent="GkzDaTwyPBY7PTJ84x12-1">
          <mxGeometry x="593.75" y="410" width="80" height="80" as="geometry" />
        </mxCell>
        <mxCell id="GkzDaTwyPBY7PTJ84x12-30" value="" style="endArrow=classic;html=1;entryX=0;entryY=1;entryDx=0;entryDy=0;" edge="1" parent="GkzDaTwyPBY7PTJ84x12-1" target="GkzDaTwyPBY7PTJ84x12-25">
          <mxGeometry width="50" height="50" relative="1" as="geometry">
            <mxPoint x="593.75" y="450" as="sourcePoint" />
            <mxPoint x="528.75" y="450" as="targetPoint" />
            <Array as="points">
              <mxPoint x="558.75" y="450" />
            </Array>
          </mxGeometry>
        </mxCell>
        <mxCell id="GkzDaTwyPBY7PTJ84x12-31" value="不正确" style="text;html=1;align=center;verticalAlign=middle;resizable=0;points=[];autosize=1;" vertex="1" parent="GkzDaTwyPBY7PTJ84x12-1">
          <mxGeometry x="558.75" y="420" width="50" height="20" as="geometry" />
        </mxCell>
        <mxCell id="GkzDaTwyPBY7PTJ84x12-33" value="正确" style="text;html=1;align=center;verticalAlign=middle;resizable=0;points=[];autosize=1;" vertex="1" parent="GkzDaTwyPBY7PTJ84x12-1">
          <mxGeometry x="668.75" y="420" width="40" height="20" as="geometry" />
        </mxCell>
        <mxCell id="GkzDaTwyPBY7PTJ84x12-34" value="" style="endArrow=classic;html=1;" edge="1" parent="GkzDaTwyPBY7PTJ84x12-1">
          <mxGeometry width="50" height="50" relative="1" as="geometry">
            <mxPoint x="673.75" y="450" as="sourcePoint" />
            <mxPoint x="348.75" y="200" as="targetPoint" />
            <Array as="points">
              <mxPoint x="728.75" y="450" />
              <mxPoint x="728.75" y="200" />
            </Array>
          </mxGeometry>
        </mxCell>
        <mxCell id="GkzDaTwyPBY7PTJ84x12-35" value="" style="endArrow=classic;html=1;" edge="1" parent="GkzDaTwyPBY7PTJ84x12-1">
          <mxGeometry width="50" height="50" relative="1" as="geometry">
            <mxPoint x="342.5" y="230" as="sourcePoint" />
            <mxPoint x="90" y="320" as="targetPoint" />
            <Array as="points">
              <mxPoint x="90" y="230" />
            </Array>
          </mxGeometry>
        </mxCell>
        <mxCell id="GkzDaTwyPBY7PTJ84x12-36" value="注册" style="rounded=0;whiteSpace=wrap;html=1;" vertex="1" parent="GkzDaTwyPBY7PTJ84x12-1">
          <mxGeometry x="50" y="320" width="70" height="30" as="geometry" />
        </mxCell>
        <mxCell id="GkzDaTwyPBY7PTJ84x12-37" value="" style="endArrow=classic;html=1;" edge="1" parent="GkzDaTwyPBY7PTJ84x12-1">
          <mxGeometry width="50" height="50" relative="1" as="geometry">
            <mxPoint x="89.41" y="350" as="sourcePoint" />
            <mxPoint x="89.41" y="420" as="targetPoint" />
          </mxGeometry>
        </mxCell>
        <mxCell id="GkzDaTwyPBY7PTJ84x12-38" value="邮箱验证" style="rhombus;whiteSpace=wrap;html=1;" vertex="1" parent="GkzDaTwyPBY7PTJ84x12-1">
          <mxGeometry x="50" y="420" width="80" height="80" as="geometry" />
        </mxCell>
        <mxCell id="GkzDaTwyPBY7PTJ84x12-39" value="邮箱验证" style="rhombus;whiteSpace=wrap;html=1;" vertex="1" parent="GkzDaTwyPBY7PTJ84x12-1">
          <mxGeometry x="408.75" y="360" width="80" height="80" as="geometry" />
        </mxCell>
        <mxCell id="GkzDaTwyPBY7PTJ84x12-40" value="不正确" style="text;html=1;align=center;verticalAlign=middle;resizable=0;points=[];autosize=1;" vertex="1" parent="GkzDaTwyPBY7PTJ84x12-1">
          <mxGeometry x="475" y="370" width="50" height="20" as="geometry" />
        </mxCell>
        <mxCell id="GkzDaTwyPBY7PTJ84x12-41" value="" style="endArrow=classic;html=1;exitX=1;exitY=0.5;exitDx=0;exitDy=0;" edge="1" parent="GkzDaTwyPBY7PTJ84x12-1" source="GkzDaTwyPBY7PTJ84x12-15">
          <mxGeometry width="50" height="50" relative="1" as="geometry">
            <mxPoint x="390" y="370" as="sourcePoint" />
            <mxPoint x="340" y="470" as="targetPoint" />
            <Array as="points">
              <mxPoint x="340" y="400" />
            </Array>
          </mxGeometry>
        </mxCell>
        <mxCell id="GkzDaTwyPBY7PTJ84x12-42" value="" style="endArrow=none;html=1;entryX=0;entryY=0.5;entryDx=0;entryDy=0;" edge="1" parent="GkzDaTwyPBY7PTJ84x12-1" target="GkzDaTwyPBY7PTJ84x12-39">
          <mxGeometry width="50" height="50" relative="1" as="geometry">
            <mxPoint x="340" y="400" as="sourcePoint" />
            <mxPoint x="440" y="320" as="targetPoint" />
          </mxGeometry>
        </mxCell>
        <mxCell id="GkzDaTwyPBY7PTJ84x12-43" value="正确" style="text;html=1;align=center;verticalAlign=middle;resizable=0;points=[];autosize=1;" vertex="1" parent="GkzDaTwyPBY7PTJ84x12-1">
          <mxGeometry x="270" y="370" width="40" height="20" as="geometry" />
        </mxCell>
        <mxCell id="GkzDaTwyPBY7PTJ84x12-45" value="" style="endArrow=classic;html=1;" edge="1" parent="GkzDaTwyPBY7PTJ84x12-1">
          <mxGeometry width="50" height="50" relative="1" as="geometry">
            <mxPoint x="90" y="500" as="sourcePoint" />
            <mxPoint x="340" y="240" as="targetPoint" />
            <Array as="points">
              <mxPoint x="90" y="520" />
              <mxPoint x="150" y="520" />
              <mxPoint x="150" y="240" />
            </Array>
          </mxGeometry>
        </mxCell>
        <mxCell id="GkzDaTwyPBY7PTJ84x12-47" value="正确" style="text;html=1;align=center;verticalAlign=middle;resizable=0;points=[];autosize=1;" vertex="1" parent="GkzDaTwyPBY7PTJ84x12-1">
          <mxGeometry x="100" y="490" width="40" height="20" as="geometry" />
        </mxCell>
        <mxCell id="GkzDaTwyPBY7PTJ84x12-48" value="" style="endArrow=classic;html=1;" edge="1" parent="GkzDaTwyPBY7PTJ84x12-1">
          <mxGeometry width="50" height="50" relative="1" as="geometry">
            <mxPoint x="50" y="460" as="sourcePoint" />
            <mxPoint x="80" y="280" as="targetPoint" />
            <Array as="points">
              <mxPoint x="10" y="460" />
              <mxPoint x="10" y="280" />
            </Array>
          </mxGeometry>
        </mxCell>
        <mxCell id="GkzDaTwyPBY7PTJ84x12-49" value="不正确" style="text;html=1;align=center;verticalAlign=middle;resizable=0;points=[];autosize=1;" vertex="1" parent="GkzDaTwyPBY7PTJ84x12-1">
          <mxGeometry x="15" y="430" width="50" height="20" as="geometry" />
        </mxCell>
      </root>
    </mxGraphModel>
  </diagram>
  <diagram id="DuCvAb54vBaRkR0ShdPp" name="Page-3">
    <mxGraphModel dx="782" dy="469" grid="1" gridSize="10" guides="1" tooltips="1" connect="1" arrows="1" fold="1" page="1" pageScale="1" pageWidth="827" pageHeight="1169" math="0" shadow="0">
      <root>
        <mxCell id="CGLZQXMeN67a8lLJqtb4-0" />
        <mxCell id="CGLZQXMeN67a8lLJqtb4-1" parent="CGLZQXMeN67a8lLJqtb4-0" />
        <mxCell id="CGLZQXMeN67a8lLJqtb4-2" value="controller层" style="rounded=0;whiteSpace=wrap;html=1;" vertex="1" parent="CGLZQXMeN67a8lLJqtb4-1">
          <mxGeometry x="360" y="40" width="160" height="40" as="geometry" />
        </mxCell>
        <mxCell id="CGLZQXMeN67a8lLJqtb4-5" value="service层&lt;span style=&quot;color: rgba(0 , 0 , 0 , 0) ; font-family: monospace ; font-size: 0px&quot;&gt;%3CmxGraphModel%3E%3Croot%3E%3CmxCell%20id%3D%220%22%2F%3E%3CmxCell%20id%3D%221%22%20parent%3D%220%22%2F%3E%3CmxCell%20id%3D%222%22%20value%3D%22controller%E5%B1%82%22%20style%3D%22rounded%3D0%3BwhiteSpace%3Dwrap%3Bhtml%3D1%3B%22%20vertex%3D%221%22%20parent%3D%221%22%3E%3CmxGeometry%20x%3D%22180%22%20y%3D%2230%22%20width%3D%22160%22%20height%3D%2240%22%20as%3D%22geometry%22%2F%3E%3C%2FmxCell%3E%3C%2Froot%3E%3C%2FmxGraphModel%3E&lt;/span&gt;&lt;span style=&quot;color: rgba(0 , 0 , 0 , 0) ; font-family: monospace ; font-size: 0px&quot;&gt;%3CmxGraphModel%3E%3Croot%3E%3CmxCell%20id%3D%220%22%2F%3E%3CmxCell%20id%3D%221%22%20parent%3D%220%22%2F%3E%3CmxCell%20id%3D%222%22%20value%3D%22controller%E5%B1%82%22%20style%3D%22rounded%3D0%3BwhiteSpace%3Dwrap%3Bhtml%3D1%3B%22%20vertex%3D%221%22%20parent%3D%221%22%3E%3CmxGeometry%20x%3D%22180%22%20y%3D%2230%22%20width%3D%22160%22%20height%3D%2240%22%20as%3D%22geometry%22%2F%3E%3C%2FmxCell%3E%3C%2Froot%3E%3C%2FmxGraphModel%3E&lt;/span&gt;" style="rounded=0;whiteSpace=wrap;html=1;" vertex="1" parent="CGLZQXMeN67a8lLJqtb4-1">
          <mxGeometry x="360" y="140" width="160" height="40" as="geometry" />
        </mxCell>
        <mxCell id="CGLZQXMeN67a8lLJqtb4-6" value="dao层" style="rounded=0;whiteSpace=wrap;html=1;" vertex="1" parent="CGLZQXMeN67a8lLJqtb4-1">
          <mxGeometry x="360" y="240" width="160" height="40" as="geometry" />
        </mxCell>
        <mxCell id="CGLZQXMeN67a8lLJqtb4-7" value="" style="endArrow=classic;html=1;entryX=0.5;entryY=0;entryDx=0;entryDy=0;" edge="1" parent="CGLZQXMeN67a8lLJqtb4-1" target="CGLZQXMeN67a8lLJqtb4-5">
          <mxGeometry width="50" height="50" relative="1" as="geometry">
            <mxPoint x="440" y="80" as="sourcePoint" />
            <mxPoint x="490" y="30" as="targetPoint" />
          </mxGeometry>
        </mxCell>
        <mxCell id="CGLZQXMeN67a8lLJqtb4-8" value="" style="endArrow=classic;html=1;entryX=0.5;entryY=0;entryDx=0;entryDy=0;" edge="1" parent="CGLZQXMeN67a8lLJqtb4-1" target="CGLZQXMeN67a8lLJqtb4-6">
          <mxGeometry width="50" height="50" relative="1" as="geometry">
            <mxPoint x="440" y="180" as="sourcePoint" />
            <mxPoint x="490" y="130" as="targetPoint" />
          </mxGeometry>
        </mxCell>
        <mxCell id="CGLZQXMeN67a8lLJqtb4-9" value="" style="endArrow=classic;html=1;" edge="1" parent="CGLZQXMeN67a8lLJqtb4-1">
          <mxGeometry width="50" height="50" relative="1" as="geometry">
            <mxPoint x="440" y="280" as="sourcePoint" />
            <mxPoint x="440" y="330" as="targetPoint" />
          </mxGeometry>
        </mxCell>
        <mxCell id="CGLZQXMeN67a8lLJqtb4-10" value="数据库" style="rounded=0;whiteSpace=wrap;html=1;" vertex="1" parent="CGLZQXMeN67a8lLJqtb4-1">
          <mxGeometry x="360" y="330" width="160" height="40" as="geometry" />
        </mxCell>
        <mxCell id="CGLZQXMeN67a8lLJqtb4-11" value="view层" style="rounded=0;whiteSpace=wrap;html=1;" vertex="1" parent="CGLZQXMeN67a8lLJqtb4-1">
          <mxGeometry x="50" y="40" width="160" height="40" as="geometry" />
        </mxCell>
        <mxCell id="CGLZQXMeN67a8lLJqtb4-12" value="" style="endArrow=classic;html=1;entryX=0;entryY=0.25;entryDx=0;entryDy=0;" edge="1" parent="CGLZQXMeN67a8lLJqtb4-1" target="CGLZQXMeN67a8lLJqtb4-2">
          <mxGeometry width="50" height="50" relative="1" as="geometry">
            <mxPoint x="210" y="50" as="sourcePoint" />
            <mxPoint x="260" as="targetPoint" />
          </mxGeometry>
        </mxCell>
        <mxCell id="CGLZQXMeN67a8lLJqtb4-13" value="" style="endArrow=classic;html=1;entryX=1;entryY=0.75;entryDx=0;entryDy=0;exitX=0;exitY=0.75;exitDx=0;exitDy=0;" edge="1" parent="CGLZQXMeN67a8lLJqtb4-1" source="CGLZQXMeN67a8lLJqtb4-2" target="CGLZQXMeN67a8lLJqtb4-11">
          <mxGeometry width="50" height="50" relative="1" as="geometry">
            <mxPoint x="350" y="70" as="sourcePoint" />
            <mxPoint x="220" y="70" as="targetPoint" />
          </mxGeometry>
        </mxCell>
        <mxCell id="CGLZQXMeN67a8lLJqtb4-14" value="JSON" style="text;html=1;align=center;verticalAlign=middle;resizable=0;points=[];autosize=1;" vertex="1" parent="CGLZQXMeN67a8lLJqtb4-1">
          <mxGeometry x="260" y="30" width="50" height="20" as="geometry" />
        </mxCell>
        <mxCell id="CGLZQXMeN67a8lLJqtb4-15" value="mapper&lt;br&gt;映射文件" style="text;html=1;align=center;verticalAlign=middle;resizable=0;points=[];autosize=1;" vertex="1" parent="CGLZQXMeN67a8lLJqtb4-1">
          <mxGeometry x="440" y="290" width="60" height="30" as="geometry" />
        </mxCell>
      </root>
    </mxGraphModel>
  </diagram>
</mxfile>
